<svg width="21" height="20" viewBox="0 0 21 20" fill="none" xmlns="http://www.w3.org/2000/svg">
                                    <g clip-path="url(#clip0_423_147)">
                                        <path d="M12.3567 -0.00602032C12.3993 -0.00618043 12.4418 -0.00634054 12.4857 -0.0065055C12.6227 -0.00687718 12.7597 -0.00687797 12.8967 -0.00678326C12.9664 -0.00680627 12.9664 -0.00680627 13.0375 -0.00682975C14.5627 -0.00622398 14.5627 -0.00622397 15.3064 0.117728C15.3064 1.17476 15.3064 2.23179 15.3064 3.32085C14.4031 3.33794 14.4031 3.33794 14.1215 3.34304C12.9846 3.31584 12.9846 3.31584 12.0203 3.82867C11.7582 4.14779 11.71 4.59634 11.7046 4.99481C11.7042 5.0204 11.7038 5.04598 11.7034 5.07235C11.7022 5.15415 11.7013 5.23596 11.7003 5.31777C11.6992 5.39338 11.6992 5.39338 11.6981 5.47052C11.6954 5.65809 11.6931 5.84567 11.6907 6.03325C11.685 6.45301 11.6794 6.87276 11.6736 7.30523C12.8337 7.30523 13.9939 7.30523 15.1892 7.30523C15.1443 7.93347 15.1443 7.93347 15.1099 8.19388C15.106 8.22415 15.1021 8.25441 15.0981 8.2856C15.0858 8.38109 15.0734 8.47655 15.0609 8.57201C15.0532 8.63195 15.0454 8.6919 15.0377 8.75185C15.0095 8.97116 14.9809 9.19044 14.9524 9.40972C14.8887 9.90117 14.8251 10.3926 14.7595 10.899C13.7412 10.899 12.7228 10.899 11.6736 10.899C11.6736 13.9025 11.6736 16.906 11.6736 20.0005C10.449 20.0005 9.22437 20.0005 7.96265 20.0005C7.96265 16.997 7.96265 13.9935 7.96265 10.899C6.95718 10.899 5.95171 10.899 4.91577 10.899C4.91577 9.71304 4.91577 8.5271 4.91577 7.30523C5.92124 7.30523 6.92671 7.30523 7.96265 7.30523C7.95957 6.37625 7.95957 6.37625 7.95561 5.44728C7.95141 3.98681 8.03228 2.51157 9.0564 1.36773C9.08762 1.33283 9.11884 1.29794 9.151 1.26198C9.98467 0.380215 11.1632 -0.0046237 12.3567 -0.00602032Z" fill="#010002"/>
                                    </g>
                                    <defs>
                                        <clipPath id="clip0_423_147">
                                            <rect width="20" height="20" fill="white" transform="translate(0.111084)"/>
                                        </clipPath>
                                    </defs>
                                </svg>