<svg viewBox="0 0 201 201" fill="none" xmlns="http://www.w3.org/2000/svg">
                                    <path d="M159.333 140.974C160.268 140.811 160.268 140.811 161.286 140.974C162.023 141.565 162.023 141.565 162.727 142.414C162.995 142.737 163.264 143.059 163.541 143.391C164.803 144.985 166.05 146.587 167.278 148.207C168.543 149.872 169.843 151.509 171.148 153.144C171.643 153.77 172.13 154.402 172.614 155.037C172.921 155.436 173.229 155.835 173.545 156.247C174.177 157.38 174.177 157.38 174.145 158.35C173.655 159.694 173.062 159.923 171.801 160.569C171.175 160.897 171.175 160.897 170.536 161.232C170.086 161.46 169.636 161.687 169.172 161.921C168.478 162.282 167.784 162.642 167.09 163.003C166.621 163.247 166.152 163.49 165.682 163.732C164.2 164.497 162.738 165.292 161.286 166.114C160.934 166.314 160.581 166.514 160.218 166.719C159.561 167.093 158.906 167.469 158.252 167.849C155.521 169.387 155.521 169.387 153.864 169.099C153.474 168.708 153.474 168.708 153.254 167.634C153.326 167.215 153.399 166.796 153.474 166.365C154.501 165.645 155.509 165.026 156.599 164.412C157.215 164.062 157.215 164.062 157.844 163.706C159.248 162.916 160.657 162.138 162.067 161.36C162.561 161.086 163.055 160.813 163.549 160.54C164.747 159.876 165.946 159.214 167.146 158.552C166.831 158.443 166.517 158.334 166.193 158.221C165.192 157.771 165.192 157.771 164.802 156.819C164.802 155.818 164.802 155.818 165.29 155.134C165.974 154.646 165.974 154.646 167.146 154.255C167.008 154.088 166.871 153.922 166.729 153.75C158.722 144.014 158.722 144.014 158.552 142.146C158.81 141.759 159.067 141.372 159.333 140.974Z" fill="black"/>
                                    <path d="M89.8015 123.786C91.7834 123.877 93.0074 124.621 94.611 125.739C95.0204 126.021 95.4298 126.303 95.8516 126.594C96.8327 127.302 96.8327 127.302 97.2233 127.692C97.2966 128.645 97.2966 128.645 97.2233 129.646C96.4421 130.427 96.4421 130.427 95.5952 130.59C93.9793 130.352 92.9358 129.542 91.6325 128.596C91.3805 128.426 91.1285 128.256 90.8688 128.081C89.0763 126.8 89.0763 126.8 88.8081 125.463C89.0202 124.567 89.0202 124.567 89.8015 123.786Z" fill="black"/>
                                    <path d="M63.2393 100.739C65.1522 100.779 66.1786 101.88 67.4385 103.181C67.6313 103.367 67.8242 103.554 68.0229 103.747C69.157 104.893 69.8063 105.745 69.8799 107.38C69.4404 108.112 69.4404 108.112 68.708 108.552C66.9175 108.431 66.1369 107.725 64.9238 106.452C64.6242 106.143 64.3246 105.834 64.0159 105.515C62.4905 103.807 62.4905 103.807 62.3604 102.473C62.458 101.521 62.458 101.521 63.2393 100.739Z" fill="black"/>
                                    <path d="M73.322 109.309C74.871 110.311 76.0448 111.51 77.3015 112.849C77.5235 113.049 77.7456 113.25 77.9744 113.456C78.2214 113.736 78.2214 113.736 78.4733 114.021C78.3089 115.748 78.3089 115.748 77.6921 116.365C76.6602 116.566 75.9976 116.531 75.1032 115.955C74.3996 115.377 73.7378 114.771 73.0778 114.143C72.8444 113.936 72.611 113.728 72.3706 113.515C70.6983 111.957 70.6983 111.957 70.5098 110.546C70.6608 109.724 70.6608 109.724 71.2956 109.26C72.2233 108.943 72.2233 108.943 73.322 109.309Z" fill="black"/>
                                    <path d="M134.071 145.706C134.383 145.815 134.695 145.923 135.017 146.034C135.339 146.153 135.661 146.271 135.993 146.393C136.321 146.508 136.65 146.624 136.988 146.743C137.798 147.028 138.605 147.318 139.411 147.614C139.655 148.737 139.655 148.737 139.802 149.958C139.544 150.215 139.286 150.473 139.021 150.739C136.302 150.64 132.79 149.977 130.817 148.004C130.769 146.979 130.769 146.979 130.817 146.051C132.085 145.267 132.674 145.208 134.071 145.706Z" fill="black"/>
                                    <path d="M101.887 130.379C102.281 130.596 102.676 130.813 103.083 131.037C103.478 131.247 103.873 131.457 104.279 131.673C105.401 132.363 106.407 133.054 107.38 133.942C107.502 135.016 107.502 135.016 107.38 135.895C106.538 136.351 106.538 136.351 105.427 136.676C104.365 136.281 104.365 136.281 103.278 135.626C102.92 135.415 102.561 135.205 102.192 134.987C101.841 134.771 101.491 134.555 101.13 134.333C100.77 134.134 100.41 133.936 100.039 133.731C99.1768 133.161 99.1768 133.161 98.8594 132.111C98.8231 131.664 98.8231 131.664 98.7861 131.208C100.412 129.938 100.412 129.938 101.887 130.379Z" fill="black"/>
                                    <path d="M80.427 116.755C82.4811 116.817 83.7431 117.693 85.261 118.977C85.474 119.141 85.687 119.306 85.9064 119.476C87.0369 120.416 87.4389 120.869 87.5956 122.353C87.5503 122.697 87.5049 123.041 87.4583 123.396C86.4527 123.71 86.4527 123.71 85.1145 123.786C84.1176 123.183 83.3283 122.626 82.4534 121.882C82.225 121.697 81.9967 121.512 81.7614 121.322C80.2442 120.088 80.2442 120.088 79.6458 119.489C79.5725 118.537 79.5725 118.537 79.6458 117.536C79.9036 117.278 80.1614 117.021 80.427 116.755Z" fill="black"/>
                                    <path d="M55.8175 91.7554C58.2967 92.359 59.8491 94.4546 61.2863 96.4429C61.654 97.4601 61.7006 98.085 61.6769 99.1772C61.0323 99.4351 60.3878 99.6929 59.7238 99.9585C57.6184 98.3667 54.8901 96.1863 54.4961 93.4521C54.5454 93.15 54.5948 92.8479 54.6456 92.5366C55.0323 92.2788 55.4191 92.021 55.8175 91.7554Z" fill="black"/>
                                    <path d="M49.4975 82.3735C51.13 82.895 51.7545 83.8293 52.6438 85.2117C52.8009 85.4357 52.958 85.6598 53.1199 85.8907C54.0103 87.2202 54.5344 88.1942 54.2552 89.8015C53.9973 90.0593 53.7395 90.3171 53.4739 90.5828C52.1289 90.5427 51.6293 90.3013 50.6739 89.3407C50.4136 88.9933 50.1533 88.6458 49.885 88.2878C49.6217 87.9424 49.3583 87.597 49.087 87.2411C47.4308 84.9524 47.4308 84.9524 47.6145 83.1609C48.3958 82.3796 48.3958 82.3796 49.4975 82.3735Z" fill="black"/>
                                    <path d="M147.907 150.08C148.448 150.211 148.448 150.211 149 150.344C150.131 150.81 150.55 151.233 151.13 152.302C150.813 153.376 150.813 153.376 150.349 154.255C143.834 153.73 143.834 153.73 142.072 151.716C141.755 150.739 141.755 150.739 142.146 149.567C143.81 148.735 146.174 149.66 147.907 150.08Z" fill="black"/>
                                    <path d="M33.1606 51.1542C34.31 51.693 34.5459 52.3378 35.1138 53.4736C35.2522 53.747 35.3907 54.0204 35.5334 54.3021C36.3562 56.0141 36.9603 57.3921 36.6763 59.333C36.4185 59.5908 36.1606 59.8486 35.895 60.1142C34.949 60.1035 34.949 60.1035 33.9419 59.7236C32.2526 57.3878 31.3177 54.7768 31.2075 51.9111C32.3794 51.1298 32.3794 51.1298 33.1606 51.1542Z" fill="black"/>
                                    <path d="M29.1083 40.1436C29.4145 40.1597 29.7207 40.1758 30.0361 40.1924C32.6137 45.8231 32.6137 45.8231 32.3798 48.3955C32.122 48.6533 31.8642 48.9111 31.5986 49.1768C30.3779 49.0303 30.3779 49.0303 29.2548 48.7861C28.9256 47.8514 28.6008 46.9155 28.2783 45.9785C28.1851 45.7154 28.092 45.4523 27.996 45.1812C27.5065 43.7477 27.1019 42.4919 27.3017 40.9736C28.083 40.1924 28.083 40.1924 29.1083 40.1436Z" fill="black"/>
                                    <path d="M110.115 135.896C112.006 136.016 113.456 136.681 115.119 137.556C115.565 137.783 116.011 138.011 116.47 138.245C117.536 139.021 117.536 139.021 117.932 140.04C117.927 140.974 117.927 140.974 117.146 141.755C115.112 142.011 113.892 141.407 112.141 140.412C111.695 140.163 111.25 139.914 110.79 139.657C109.724 139.021 109.724 139.021 109.333 138.63C109.26 137.678 109.26 137.678 109.333 136.677C109.591 136.419 109.849 136.161 110.115 135.896Z" fill="black"/>
                                    <path d="M42.8047 72.3701C44.0986 72.6143 44.0986 72.6143 44.7334 73.3299C45.3405 74.2451 45.8967 75.1769 46.4424 76.1299C46.6841 76.4763 46.9258 76.8228 47.1748 77.1797C47.7305 78.3219 47.7283 79.1727 47.6143 80.4268C47.2236 80.8174 47.2236 80.8174 46.2974 80.9288C45.2705 80.8174 45.2705 80.8174 44.622 80.2299C44.4412 79.9646 44.2605 79.6992 44.0742 79.4258C43.8794 79.1408 43.6845 78.8558 43.4837 78.5621C43.2999 78.2751 43.1161 77.9881 42.9268 77.6924C42.7631 77.4456 42.5995 77.1989 42.4309 76.9447C41.5927 75.6001 41.1303 74.5955 41.3643 73.0049C41.7549 72.6143 41.7549 72.6143 42.8047 72.3701Z" fill="black"/>
                                    <path d="M37.7017 62.0186C38.0078 62.0347 38.314 62.0508 38.6294 62.0674C39.1553 63.0007 39.6751 63.9366 40.1919 64.875C40.3409 65.1381 40.49 65.4012 40.6436 65.6723C42.0432 68.2342 42.0432 68.2342 41.7544 69.8799C40.9731 70.6611 40.9731 70.6611 40.0698 70.71C38.4223 70.0203 37.8847 68.6743 37.0669 67.1455C36.8332 66.7346 36.5996 66.3237 36.3589 65.9004C35.8792 64.7643 35.726 64.0654 35.895 62.8486C36.6763 62.0674 36.6763 62.0674 37.7017 62.0186Z" fill="black"/>
                                    <path d="M154.255 152.302C160.817 152.614 160.817 152.614 162.458 154.255C162.531 155.207 162.531 155.207 162.458 156.208C161.677 156.989 161.677 156.989 160.87 157.008C154.713 156.275 154.713 156.275 153.474 155.036C153.376 154.06 153.376 154.06 153.474 153.083C153.731 152.825 153.989 152.567 154.255 152.302Z" fill="black"/>
                                    <path d="M120.661 140.974C122.702 141.091 124.278 141.675 126.106 142.561C126.776 142.882 126.776 142.882 127.459 143.209C127.794 143.374 128.129 143.538 128.474 143.708C128.474 144.481 128.474 145.255 128.474 146.052C127.699 146.523 127.699 146.523 126.521 146.833C125.379 146.547 124.355 146.05 123.298 145.539C123.012 145.408 122.726 145.278 122.431 145.143C120.357 144.184 120.357 144.184 119.88 143.708C119.807 142.756 119.807 142.756 119.88 141.755C120.138 141.497 120.396 141.239 120.661 140.974Z" fill="black"/>
                                    <path d="M26.2762 31.4521C27.3016 31.5986 27.3016 31.5986 27.9852 32.3555C28.6088 33.8834 28.9325 35.4097 28.8641 37.0674C28.6063 37.3252 28.3485 37.583 28.0829 37.8486C26.8621 37.7021 26.8621 37.7021 25.7391 37.458C24.969 35.5327 24.854 34.0314 24.9579 31.9893C25.3485 31.5986 25.3485 31.5986 26.2762 31.4521Z" fill="black"/>
                                </svg>