<svg viewBox="0 0 15 16" fill="none" xmlns="http://www.w3.org/2000/svg">
    <g clip-path="url(#clip0_328_865)">
        <path d="M1.22392 1.25765C1.27449 1.28174 1.32509 1.30577 1.37572 1.32974C1.48075 1.37952 1.58564 1.42959 1.69044 1.47986C1.90827 1.58409 2.12772 1.68478 2.34718 1.78552C2.466 1.84011 2.5847 1.89496 2.70341 1.94978C2.75102 1.97176 2.79862 1.99373 2.84623 2.0157C5.2028 3.10335 7.55937 4.19099 12.3439 6.39924C12.3915 6.42123 12.4392 6.44322 12.4868 6.46521C12.6053 6.51988 12.7237 6.57455 12.8422 6.62925C13.0631 6.73127 13.2841 6.83321 13.5052 6.93484C13.6085 6.98229 13.7117 7.02979 13.8149 7.07729C13.8636 7.09969 13.9123 7.12206 13.961 7.14441C14.0923 7.20465 14.2235 7.26526 14.3543 7.32666C14.3946 7.34557 14.435 7.36439 14.4754 7.38311C14.5323 7.40958 14.5889 7.43654 14.6454 7.46366C14.6774 7.4788 14.7094 7.49394 14.7423 7.50953C14.8645 7.58433 14.9498 7.6896 15.0008 7.82381C15.0235 7.99141 15.0271 8.15521 14.9422 8.30538C14.772 8.52487 14.4898 8.61998 14.2427 8.72993C14.1345 8.77809 14.0266 8.82683 13.9186 8.87552C13.8964 8.88551 13.8743 8.89549 13.8514 8.90578C13.6279 9.00662 13.4061 9.11079 13.1844 9.21541C12.848 9.37394 12.5103 9.52909 12.1715 9.68233C11.8732 9.8173 11.5762 9.95477 11.2801 10.0943C10.9437 10.2528 10.606 10.408 10.2672 10.5612C9.96892 10.6962 9.67194 10.8337 9.37577 10.9732C9.0394 11.1317 8.70169 11.2869 8.3629 11.4401C8.06462 11.5751 7.76764 11.7126 7.47148 11.8521C7.13511 12.0106 6.79739 12.1658 6.4586 12.319C6.16033 12.454 5.86334 12.5915 5.56718 12.731C5.23081 12.8895 4.8931 13.0447 4.55431 13.198C4.25603 13.3329 3.95905 13.4704 3.66288 13.6099C3.32663 13.7684 2.98907 13.9236 2.65036 14.0767C2.36461 14.2059 2.08021 14.3377 1.79662 14.4715C1.62793 14.5511 1.45891 14.6299 1.28984 14.7086C1.25822 14.7233 1.2266 14.7381 1.19402 14.7533C1.11026 14.7922 1.0262 14.8302 0.941936 14.8679C0.918644 14.8788 0.895352 14.8897 0.871354 14.9009C0.697028 14.9772 0.508401 15.0156 0.323075 14.9522C0.180419 14.8782 0.0724646 14.7641 0.000773637 14.6207C-0.0306669 14.3781 -0.00858811 14.2078 0.134555 14.0088C0.158083 13.9787 0.181611 13.9486 0.205852 13.9176C0.236036 13.8783 0.266209 13.8391 0.296375 13.7998C0.365938 13.7098 0.436097 13.6202 0.506488 13.5309C0.612949 13.395 0.715618 13.2567 0.817424 13.1174C0.962893 12.9185 1.11073 12.7216 1.26054 12.526C1.40898 12.332 1.55569 12.137 1.69999 11.94C1.86366 11.7166 2.03084 11.496 2.19918 11.276C2.32755 11.108 2.45396 10.9387 2.5789 10.7681C2.74257 10.5447 2.90974 10.3241 3.07809 10.1042C3.20646 9.93614 3.33287 9.76685 3.4578 9.59627C3.6212 9.37318 3.78809 9.15296 3.95616 8.93338C4.14104 8.69139 4.32186 8.44653 4.5016 8.20071C4.53062 8.16126 4.56078 8.12265 4.59162 8.08461C4.63804 8.03074 4.63804 8.03074 4.61732 7.9632C4.55143 7.84806 4.47093 7.74765 4.38798 7.64436C4.24169 7.45938 4.09859 7.27271 3.95951 7.08223C3.81405 6.88332 3.6662 6.68646 3.5164 6.4908C3.35076 6.2744 3.18784 6.05627 3.02682 5.83643C2.89903 5.66238 2.76873 5.49038 2.63749 5.31892C2.47186 5.10253 2.30894 4.88439 2.14791 4.66455C2.02013 4.49051 1.88982 4.31851 1.75859 4.14705C1.59296 3.93065 1.43003 3.71252 1.26901 3.49268C1.14122 3.31863 1.01091 3.14664 0.87968 2.97517C-0.0267858 1.79012 -0.0267858 1.79012 0.000773637 1.40779C0.0489161 1.26843 0.123551 1.18118 0.235149 1.08553C0.595519 0.917962 0.89811 1.09866 1.22392 1.25765Z" fill="#F28C38"/>
    </g>
    <defs>
        <clipPath id="clip0_328_865">
            <rect width="15" height="15" fill="white" transform="translate(0 0.5)"/>
        </clipPath>
    </defs>
</svg>