<svg viewBox="0 0 46 30" fill="none" xmlns="http://www.w3.org/2000/svg">
<path d="M17.0534 0.556521C16.8635 0.701023 16.6844 0.853054 16.5057 1.01121C16.3687 1.12747 16.2316 1.24369 16.0945 1.35987C15.9905 1.44942 15.9905 1.44942 15.8844 1.54078C15.5553 1.82207 15.2188 2.09398 14.8822 2.36619C14.8172 2.41904 14.7523 2.47189 14.6853 2.52634C14.2722 2.86202 13.8554 3.19242 13.4357 3.51975C12.8492 3.97712 12.2754 4.44879 11.7027 4.92316C11.2739 5.27751 10.8412 5.62562 10.4022 5.96726C9.80865 6.42931 9.22768 6.90562 8.64804 7.38497C8.21499 7.74303 7.77934 8.09725 7.33939 8.44682C6.99947 8.71875 6.66244 8.99419 6.32506 9.26927C5.83448 9.669 5.34101 10.0643 4.8419 10.4533C4.25592 10.9103 3.68245 11.3814 3.11041 11.8557C2.66775 12.2218 2.21962 12.5793 1.76573 12.9314C0.204838 14.1473 0.204838 14.1473 0.0506401 14.6098C0.0153351 15.1571 0.0226593 15.4194 0.343609 15.8794C0.850235 16.4095 1.45345 16.8473 2.03135 17.2964C2.50109 17.6622 2.9614 18.0385 3.41978 18.4184C3.97308 18.8768 4.53167 19.3264 5.09863 19.7677C5.55465 20.124 6.00146 20.4907 6.44713 20.8598C6.94662 21.2736 7.44899 21.6822 7.9608 22.0805C8.61204 22.5878 9.24835 23.1122 9.88456 23.6381C10.8171 24.4088 11.7562 25.1704 12.7101 25.9145C13.2491 26.3367 13.7766 26.7725 14.3044 27.2087C14.7412 27.5698 15.1786 27.9298 15.6242 28.2802C15.821 28.4372 16.0139 28.597 16.2063 28.7593C16.3264 28.8585 16.4466 28.9577 16.5668 29.0569C16.6217 29.1043 16.6766 29.1517 16.7332 29.2006C17.158 29.5468 17.4701 29.6324 18.0194 29.6489C18.365 29.5315 18.5497 29.417 18.7945 29.1484C18.9409 28.7525 18.9429 28.3882 18.8007 27.9887C18.4765 27.6248 18.1052 27.3131 17.7325 27C17.6505 26.9308 17.6505 26.9308 17.5668 26.8602C17.1097 26.4772 16.6428 26.1075 16.1725 25.7408C15.7402 25.4037 15.3144 25.0594 14.891 24.7112C14.0544 24.0234 13.2155 23.3386 12.3614 22.6726C11.7661 22.2082 11.183 21.7299 10.6012 21.2488C10.1681 20.8907 9.73247 20.5365 9.29251 20.1869C8.95259 19.915 8.61557 19.6396 8.27818 19.3645C7.73396 18.921 7.18517 18.4843 6.63138 18.0529C6.07314 17.616 5.52755 17.1639 4.98307 16.71C4.91584 16.6542 4.84861 16.5984 4.77934 16.5408C4.71952 16.4909 4.65969 16.441 4.59805 16.3895C4.44518 16.27 4.44518 16.27 4.24986 16.1723C4.37971 16.1723 4.37971 16.1723 4.51218 16.1723C9.63992 16.171 14.7677 16.1671 19.8954 16.16C20.5107 16.1591 21.1261 16.1583 21.7415 16.1574C21.864 16.1573 21.9865 16.1571 22.1127 16.1569C24.0977 16.1543 26.0827 16.1535 28.0678 16.1532C30.1038 16.1529 32.1398 16.1508 34.1758 16.1469C35.4327 16.1446 36.6895 16.1437 37.9464 16.1447C38.8077 16.1452 39.6689 16.1439 40.5302 16.1412C41.0275 16.1397 41.5248 16.139 42.0221 16.1404C42.4771 16.1417 42.9321 16.1408 43.3872 16.138C43.552 16.1374 43.7169 16.1377 43.8817 16.1388C44.1055 16.1402 44.3291 16.1386 44.5529 16.1363C44.7394 16.1361 44.7394 16.1361 44.9297 16.136C45.3738 16.0549 45.5335 15.9018 45.8514 15.5864C46.0091 15.2711 46.0073 14.9507 45.9491 14.6098C45.7796 14.3144 45.5745 14.0807 45.2655 13.9262C45.0442 13.9164 44.8225 13.9132 44.6009 13.9127C44.5314 13.9124 44.462 13.9122 44.3904 13.9119C44.1552 13.911 43.9201 13.9109 43.6849 13.9108C43.5156 13.9104 43.3462 13.9099 43.1769 13.9093C42.7097 13.908 42.2425 13.9073 41.7753 13.9067C41.2721 13.9059 40.769 13.9045 40.2659 13.9033C39.3936 13.9011 38.5212 13.8994 37.6489 13.8978C36.3877 13.8956 35.1265 13.8929 33.8652 13.89C31.8192 13.8853 29.7731 13.8811 27.727 13.8772C25.739 13.8733 23.7509 13.8693 21.7629 13.865C21.6404 13.8647 21.518 13.8644 21.3918 13.8641C20.7775 13.8628 20.1631 13.8615 19.5488 13.8601C14.4492 13.849 9.34951 13.8386 4.24986 13.8286C4.34335 13.7553 4.43684 13.682 4.53316 13.6065C4.65725 13.5091 4.78133 13.4117 4.90542 13.3144C4.96687 13.2662 5.02832 13.218 5.09163 13.1684C5.54918 12.8092 6.00034 12.4433 6.44713 12.0708C6.94648 11.6569 7.44897 11.2484 7.9608 10.8501C8.54549 10.395 9.11714 9.92534 9.68772 9.45275C10.1165 9.09842 10.5492 8.75031 10.9881 8.40867C11.5817 7.94663 12.1627 7.47031 12.7423 6.99096C13.1754 6.6329 13.611 6.27869 14.051 5.92912C14.3229 5.71154 14.593 5.49173 14.863 5.27163C15.4275 4.81141 15.9937 4.35382 16.5668 3.90428C16.649 3.83951 16.649 3.83951 16.7329 3.77343C17.0252 3.54383 17.3196 3.31753 17.6169 3.09442C17.6792 3.0471 17.7414 2.99978 17.8055 2.95103C17.924 2.86104 18.0431 2.77193 18.1631 2.68391C18.6166 2.33731 18.8582 1.99402 18.941 1.42625C18.8853 1.04375 18.7554 0.841972 18.5077 0.547342C18.0619 0.262551 17.506 0.294756 17.0534 0.556521Z" fill="#2C2B28"/>
</svg>