<svg viewBox="0 0 65 65" fill="none" xmlns="http://www.w3.org/2000/svg">
                                    <path d="M45.8654 2.09918C45.9631 2.1445 46.0608 2.18981 46.1614 2.2365C46.4722 2.381 46.782 2.52743 47.0918 2.67394C47.2951 2.76887 47.4985 2.86367 47.702 2.95835C48.1061 3.14657 48.5094 3.33648 48.9122 3.52747C49.3131 3.71697 49.7161 3.90028 50.1218 4.07929C50.2195 4.12314 50.3172 4.167 50.4179 4.21218C50.6012 4.29432 50.7852 4.37501 50.97 4.45386C51.5824 4.73124 51.9173 5.03313 52.3048 5.58593C52.5095 6.28983 52.3789 6.73406 52.0509 7.36327C51.8381 7.70489 51.6053 8.02981 51.3685 8.35509C51.2682 8.49506 51.2682 8.49506 51.1659 8.63786C50.9539 8.93306 50.7408 9.22736 50.5274 9.52148C50.3925 9.70792 50.2576 9.89438 50.1228 10.0809C49.9192 10.3623 49.7155 10.6438 49.5116 10.9251C48.9197 11.7431 48.3411 12.57 47.7638 13.3984C47.2078 14.1948 46.6414 14.9831 46.0707 15.769C45.5597 16.4742 45.0586 17.1859 44.5606 17.9004C43.9304 18.8047 43.2906 19.7013 42.6429 20.5932C42.132 21.2984 41.6308 22.0101 41.1329 22.7246C40.5038 23.6272 39.8653 24.5222 39.2188 25.4124C38.4036 26.5375 37.6103 27.678 36.8165 28.8184C38.2904 28.6541 39.756 28.4559 41.2217 28.2306C41.437 28.1978 41.6522 28.165 41.8675 28.1323C42.3261 28.0625 42.7846 27.9926 43.2432 27.9224C43.9688 27.8115 44.6945 27.7013 45.4202 27.5913C47.4821 27.2786 49.544 26.9655 51.6055 26.6504C52.7479 26.4758 53.8904 26.3021 55.033 26.1294C55.6362 26.0382 56.2392 25.9466 56.8422 25.8538C57.4078 25.7667 57.9737 25.6808 58.5397 25.5959C58.7469 25.5645 58.9542 25.5328 59.1613 25.5005C59.4445 25.4565 59.7279 25.4141 60.0114 25.372C60.249 25.3358 60.249 25.3358 60.4913 25.2989C61.1135 25.2498 61.8196 25.2543 62.3341 25.6445C62.7636 26.283 62.9164 26.7561 62.9056 27.531C62.9066 27.6742 62.9066 27.6742 62.9076 27.8204C62.9092 28.1334 62.9072 28.4463 62.9049 28.7593C62.9049 28.9783 62.9051 29.1972 62.9054 29.4161C62.9056 29.8738 62.904 30.3314 62.9011 30.7891C62.8975 31.3747 62.8979 31.9601 62.8995 32.5457C62.9004 32.9974 62.8994 33.449 62.8978 33.9007C62.8972 34.1166 62.8972 34.3324 62.8977 34.5483C62.898 34.8503 62.8959 35.1522 62.8932 35.4542C62.894 35.5869 62.894 35.5869 62.8949 35.7222C62.8861 36.3049 62.7646 36.7012 62.461 37.1973C61.8984 37.7317 61.4654 37.7374 60.7336 37.7258C59.8514 37.6833 58.9752 37.581 58.0977 37.4836C57.8777 37.4598 57.6578 37.4361 57.4378 37.4123C56.9668 37.3615 56.4957 37.3101 56.0247 37.2584C55.2794 37.1765 54.534 37.0958 53.7886 37.0152C52.3412 36.8586 50.894 36.7008 49.4468 36.543C47.6034 36.342 45.7599 36.1414 43.9162 35.9419C43.1757 35.8617 42.4353 35.781 41.6949 35.6998C41.2341 35.6494 40.7732 35.5995 40.3124 35.5496C40.0992 35.5265 39.8861 35.5031 39.6731 35.4796C39.3814 35.4474 39.0897 35.4159 38.7979 35.3845C38.635 35.3667 38.472 35.349 38.3041 35.3306C37.8043 35.2907 37.3176 35.2866 36.8165 35.293C36.915 35.4208 37.0135 35.5486 37.115 35.6803C37.8642 36.6547 38.6054 37.634 39.3317 38.6255C39.9651 39.4898 40.6086 40.3454 41.2598 41.1963C42.2807 42.5307 43.2772 43.8821 44.2698 45.2377C45.202 46.5101 46.1459 47.7721 47.1046 49.0247C47.7346 49.8492 48.3523 50.682 48.9651 51.5193C49.621 52.4134 50.2934 53.2945 50.9713 54.172C52.5402 56.2143 52.5402 56.2143 52.519 56.9623C52.5195 57.0727 52.52 57.1832 52.5205 57.297C52.317 58.0758 51.7287 58.4813 51.0707 58.8715C50.9778 58.9249 50.885 58.9782 50.7893 59.0332C50.5841 59.1548 50.3792 59.2766 50.1743 59.3987C50.0665 59.4627 49.9586 59.5267 49.8475 59.5926C49.266 59.943 48.695 60.3097 48.1233 60.6757C48.0067 60.75 47.8901 60.8243 47.7699 60.9009C47.3043 61.1979 46.8388 61.4952 46.3742 61.7937C46.0477 62.0034 45.7208 62.2124 45.3938 62.4213C45.2486 62.5151 45.2486 62.5151 45.1005 62.6109C43.5919 63.5722 43.5919 63.5722 42.8944 63.4686C42.3486 63.3366 42.1611 63.2356 41.7677 62.8418C41.5524 62.4614 41.3925 62.063 41.2306 61.6576C41.1819 61.5396 41.1331 61.4217 41.0829 61.3003C40.9286 60.9261 40.7769 60.551 40.6251 60.1758C40.529 59.942 40.4327 59.7084 40.3362 59.4748C40.0359 58.7467 39.7393 58.0172 39.4428 57.2876C39.3324 57.0162 39.2218 56.7449 39.1113 56.4736C38.8827 55.9124 38.6543 55.3512 38.4259 54.7899C37.9427 53.6026 37.458 52.4158 36.9734 51.2291C36.7111 50.5867 36.4489 49.9443 36.1867 49.3019C36.1346 49.1743 36.0825 49.0466 36.0288 48.9151C35.6984 48.1058 35.3684 47.2964 35.0385 46.4869C34.8126 45.9328 34.5867 45.3788 34.3608 44.8248C34.255 44.5652 34.1492 44.3056 34.0434 44.0459C33.4685 42.6343 32.8903 41.2242 32.3067 39.8162C32.2518 39.6831 32.1969 39.5501 32.1403 39.4131C32.0643 39.23 32.0643 39.23 31.9866 39.0433C31.9417 38.9349 31.8967 38.8264 31.8504 38.7147C31.7581 38.4716 31.7581 38.4716 31.6114 38.3398C30.0368 42.1388 28.4776 45.9438 26.9281 49.753C26.2119 51.5134 25.4944 53.2733 24.7753 55.0325C24.6727 55.2837 24.57 55.5348 24.4673 55.786C24.4173 55.9083 24.3673 56.0306 24.3158 56.1567C24.0161 56.8902 23.7178 57.6242 23.4206 58.3587C23.2332 58.8215 23.0451 59.2841 22.857 59.7466C22.77 59.961 22.6833 60.1755 22.5969 60.3901C22.4789 60.6831 22.3599 60.9757 22.2407 61.2683C22.2069 61.3529 22.1732 61.4375 22.1384 61.5246C21.875 62.1662 21.5814 62.7578 21.0426 63.2068C20.4691 63.4414 19.9795 63.4692 19.4075 63.2425C18.8697 62.9577 18.3834 62.6083 17.895 62.2467C17.1501 61.7021 16.386 61.1908 15.6153 60.6836C12.0203 58.3177 12.0203 58.3177 11.6798 57.6367C11.5809 56.9747 11.5915 56.4125 11.9654 55.8435C12.1213 55.6351 12.2805 55.4291 12.4415 55.2246C12.551 55.0788 12.6601 54.9326 12.7688 54.7862C13.0252 54.4414 13.2833 54.098 13.5424 53.7552C13.9741 53.1829 14.3981 52.6051 14.8219 52.027C15.4581 51.1603 16.1045 50.3021 16.7579 49.4482C17.478 48.5071 18.1876 47.5593 18.8883 46.6037C19.5008 45.769 20.1215 44.9408 20.7438 44.1134C21.2791 43.4009 21.8089 42.6846 22.3359 41.9659C23.0469 40.997 23.7728 40.0402 24.5031 39.0858C25.0971 38.3081 25.6833 37.5251 26.2635 36.7371C26.3383 36.6355 26.4131 36.534 26.4901 36.4293C26.7655 36.0543 27.0368 35.6802 27.295 35.293C25.8705 35.4513 24.4551 35.642 23.0397 35.867C22.8405 35.8984 22.6413 35.9297 22.442 35.961C22.0179 36.0276 21.5939 36.0944 21.1699 36.1615C20.498 36.2677 19.826 36.3731 19.1539 36.4783C17.2446 36.7774 15.3354 37.0773 13.4264 37.3786C12.3683 37.5457 11.3101 37.7119 10.2518 37.8772C9.58501 37.9813 8.91839 38.0865 8.25188 38.1925C7.83636 38.2583 7.42069 38.3231 7.00497 38.3876C6.81372 38.4175 6.62253 38.4478 6.43142 38.4785C3.60716 38.9319 3.60716 38.9319 2.92112 38.5975C2.55831 38.3134 2.31971 38.0045 2.15829 37.5781C2.13291 37.256 2.12099 36.9477 2.1214 36.6256C2.12055 36.5303 2.1197 36.4351 2.11882 36.337C2.11641 36.0225 2.11591 35.7081 2.11564 35.3936C2.11482 35.1745 2.11397 34.9553 2.11308 34.7362C2.11156 34.2767 2.11109 33.8173 2.11124 33.3579C2.11126 32.7705 2.1078 32.1832 2.10342 31.5958C2.10059 31.143 2.10009 30.6903 2.10022 30.2375C2.09992 30.021 2.09881 29.8046 2.09684 29.5881C2.09434 29.2845 2.09508 28.9812 2.09661 28.6776C2.09518 28.589 2.09376 28.5004 2.09229 28.4091C2.10108 27.7167 2.25703 27.3299 2.6661 26.7871C3.33008 26.4214 3.80154 26.3677 4.55199 26.4887C4.64562 26.5017 4.73924 26.5148 4.83571 26.5283C5.12854 26.5699 5.42071 26.6148 5.71298 26.6601C5.89149 26.6862 6.07002 26.7121 6.24859 26.7378C6.8036 26.8187 7.35769 26.9052 7.91181 26.992C8.12184 27.0246 8.33187 27.0571 8.54191 27.0896C8.98907 27.159 9.43619 27.2285 9.88328 27.2983C10.5901 27.4086 11.2969 27.5183 12.0038 27.6279C13.1203 27.8012 14.2368 27.9748 15.3532 28.1485C17.3578 28.4605 19.3624 28.7721 21.367 29.0832C22.0701 29.1924 22.7732 29.3018 23.4763 29.4113C23.9117 29.4791 24.3471 29.5468 24.7825 29.6144C24.9849 29.6458 25.1873 29.6774 25.3896 29.7089C25.6648 29.7519 25.9401 29.7947 26.2154 29.8373C26.3696 29.8613 26.5239 29.8853 26.6828 29.9101C27.0227 29.9669 27.0227 29.9669 27.295 29.9609C26.4837 28.8005 25.6384 27.6692 24.7773 26.5453C24.1379 25.7095 23.5111 24.8655 22.8896 24.0165C22.3255 23.248 21.7493 22.4895 21.1695 21.7328C20.567 20.9461 19.9756 20.155 19.4058 19.3444C18.8471 18.555 18.2555 17.7907 17.6674 17.0231C17.0281 16.1875 16.4012 15.3436 15.7799 14.4945C15.3047 13.8467 14.8206 13.2064 14.3309 12.5695C13.9099 12.0211 13.4926 11.4699 13.0763 10.918C12.9647 10.7711 12.9647 10.7711 12.8508 10.6213C12.6478 10.3521 12.4488 10.0803 12.2511 9.80712C12.1923 9.73009 12.1335 9.65306 12.0729 9.5737C11.7099 9.06076 11.5907 8.64457 11.631 8.01347C11.7338 7.44583 11.9986 7.12545 12.4525 6.78194C12.7846 6.55848 13.1227 6.34882 13.4651 6.14135C13.6517 6.02552 13.6517 6.02552 13.8421 5.90734C14.098 5.74852 14.3543 5.59031 14.611 5.43269C15.1472 5.10244 15.6787 4.76485 16.2104 4.42748C16.4058 4.30428 16.6012 4.18113 16.7966 4.05803C17.2158 3.79366 17.6342 3.52799 18.0522 3.2616C18.2153 3.15791 18.2153 3.15791 18.3817 3.05214C18.589 2.92031 18.7961 2.78821 19.003 2.65578C20.543 1.67783 20.543 1.67783 21.4552 1.77734C22.3793 2.18566 22.716 2.99548 23.0669 3.88049C23.1106 3.98828 23.1544 4.09606 23.1994 4.20712C23.3437 4.56318 23.4864 4.91983 23.6292 5.27648C23.7311 5.52867 23.8331 5.7808 23.9353 6.0329C24.1472 6.55631 24.3586 7.07992 24.5697 7.60367C24.9991 8.66792 25.4345 9.72968 25.8699 10.7915C26.1069 11.3696 26.3434 11.9479 26.5799 12.5262C26.6276 12.6429 26.6753 12.7595 26.7245 12.8797C27.2962 14.2779 27.8669 15.6766 28.4376 17.0752C29.2358 19.0311 30.0341 20.987 30.8336 22.9425C30.9332 23.186 31.0327 23.4296 31.1323 23.6732C31.2696 24.0093 31.407 24.3454 31.5445 24.6815C31.5844 24.7793 31.6244 24.8771 31.6655 24.9779C31.7032 25.0699 31.7408 25.1618 31.7796 25.2565C31.815 25.3433 31.8504 25.43 31.887 25.5194C31.9909 25.7682 32.1006 26.014 32.2107 26.2601C32.3731 26.6601 32.3731 26.6601 32.3731 27.041C32.4569 27.041 32.5407 27.041 32.627 27.041C32.6519 26.9011 32.6519 26.9011 32.6773 26.7583C32.7477 26.435 32.8397 26.157 32.9652 25.8518C33.0088 25.7451 33.0523 25.6384 33.0972 25.5285C33.1448 25.4134 33.1924 25.2984 33.2415 25.1799C33.3164 24.997 33.3164 24.997 33.3928 24.8104C33.5575 24.4085 33.7231 24.0069 33.8886 23.6053C34.0045 23.3231 34.1203 23.0408 34.236 22.7586C34.4733 22.18 34.711 21.6015 34.9488 21.0231C35.3999 19.926 35.8488 18.8281 36.2976 17.7302C36.4369 17.3894 36.5763 17.0487 36.7158 16.7079C37.32 15.2316 37.9233 13.7549 38.5259 12.2779C38.739 11.7556 38.9522 11.2334 39.1656 10.7113C39.6476 9.53152 40.1288 8.35151 40.6064 7.16998C40.8161 6.65147 41.0264 6.13322 41.2368 5.615C41.3358 5.37066 41.4345 5.1262 41.5328 4.88161C41.6685 4.54428 41.8053 4.20739 41.9422 3.87057C41.9815 3.77209 42.0208 3.6736 42.0613 3.57212C42.3702 2.81706 42.6973 2.09216 43.4181 1.65038C44.2878 1.36046 45.082 1.72478 45.8654 2.09918Z" fill="#FF6A00"/>
                                </svg>