<svg width="21" height="20" viewBox="0 0 21 20" fill="none" xmlns="http://www.w3.org/2000/svg">
                                    <g clip-path="url(#clip0_2001_153)">
                                        <path d="M10.3636 -0.00859223C10.4189 -0.00900588 10.4189 -0.00900588 10.4754 -0.00942789C12.0162 -0.0183301 12.0162 -0.0183301 12.6593 0.11653C12.6982 0.124498 12.7371 0.132467 12.7772 0.140677C14.2712 0.454652 15.5616 1.06537 16.6827 2.10872C16.7092 2.13309 16.7357 2.15746 16.763 2.18257C17.9404 3.30796 18.4417 4.97125 18.4779 6.56121C18.4785 6.5872 18.479 6.61319 18.4796 6.63997C18.4811 6.68916 18.4827 6.73836 18.4843 6.78905C18.5246 9.10007 17.7521 11.3798 16.1407 13.0535C15.5029 13.6743 14.7182 14.1247 13.8629 14.367C13.836 14.3746 13.8092 14.3822 13.7815 14.3901C13.3346 14.5088 12.891 14.5449 12.4298 14.5428C12.404 14.5427 12.3783 14.5426 12.3518 14.5425C11.2631 14.5368 10.5075 14.1233 9.64245 13.5115C9.54337 13.4431 9.44288 13.3803 9.33895 13.3197C9.27159 13.507 9.22881 13.6931 9.19002 13.8877C9.17632 13.9547 9.16258 14.0216 9.14882 14.0886C9.14163 14.1236 9.13444 14.1587 9.12703 14.1948C8.76151 15.965 8.29401 17.8658 7.07332 19.2572C7.03125 19.307 7.03125 19.307 6.98833 19.3579C6.78092 19.5981 6.55556 19.8205 6.29207 19.9993C6.2534 19.9993 6.21473 19.9993 6.17489 19.9993C6.1625 19.8944 6.15033 19.7894 6.13827 19.6844C6.13487 19.6558 6.13147 19.6271 6.12797 19.5977C6.06928 19.0826 6.04954 18.569 6.05038 18.0511C6.05041 18.0213 6.05045 17.9916 6.05049 17.9609C6.05609 15.8402 6.58831 13.8166 7.12204 11.7788C7.22734 11.3763 7.3306 10.9733 7.43174 10.5698C7.44805 10.5047 7.46443 10.4397 7.48087 10.3746C7.5493 10.1037 7.61716 9.83257 7.67467 9.55913C7.68141 9.52741 7.68815 9.4957 7.69509 9.46302C7.7004 9.3173 7.63129 9.21612 7.55947 9.09328C7.49176 8.96188 7.45209 8.82818 7.41512 8.68587C7.40283 8.63863 7.39055 8.5914 7.37789 8.54274C7.14526 7.45941 7.35365 6.29489 7.92177 5.34951C8.21745 4.89566 8.63711 4.54305 9.16363 4.40013C9.71334 4.2961 10.231 4.3979 10.7002 4.70134C11.0233 4.94587 11.1809 5.27572 11.2407 5.67027C11.3528 6.67112 10.9484 7.69688 10.6544 8.63712C10.1289 10.152 10.1289 10.152 10.3204 11.6912C10.5338 12.0783 10.8914 12.2593 11.3034 12.3811C12.0145 12.5536 12.693 12.4717 13.3247 12.1055C13.5053 11.9887 13.6705 11.861 13.8311 11.7181C13.8575 11.695 13.8838 11.6719 13.9109 11.6481C14.995 10.6332 15.52 8.89797 15.5932 7.4553C15.5953 7.37246 15.5964 7.2897 15.5969 7.20683C15.5973 7.16131 15.5973 7.16131 15.5977 7.11487C15.6107 6.187 15.6107 6.187 15.4718 5.27278C15.464 5.24074 15.4562 5.2087 15.4482 5.1757C15.1759 4.09553 14.6092 3.20743 13.6573 2.60768C13.5219 2.5277 13.3855 2.4531 13.2452 2.38215C13.2097 2.36404 13.2097 2.36404 13.1736 2.34555C11.9421 1.72899 10.5026 1.7411 9.21245 2.16075C7.69012 2.68068 6.39269 3.73599 5.67106 5.18229C5.20369 6.16466 4.94618 7.50265 5.31551 8.55403C5.44218 8.85886 5.60503 9.14293 5.7745 9.42561C6.069 9.92385 6.15853 10.3898 6.0223 10.9568C5.95523 11.1707 5.86462 11.3719 5.7452 11.5618C5.59289 11.638 5.37486 11.5218 5.21847 11.47C4.77516 11.3137 4.37445 11.099 4.02645 10.7806C3.98649 10.746 3.98649 10.746 3.94573 10.7107C3.0821 9.91637 2.90056 8.67487 2.85048 7.56469C2.77818 5.57377 3.53074 3.80903 4.87149 2.3649C5.02411 2.20296 5.18118 2.05316 5.35458 1.9134C5.39239 1.88193 5.43021 1.85046 5.46917 1.81804C6.83367 0.69966 8.59148 0.00025397 10.3636 -0.00859223Z" fill="black"/>
                                    </g>
                                    <defs>
                                        <clipPath id="clip0_2001_153">
                                            <rect width="20" height="20" fill="white" transform="translate(0.666992)"/>
                                        </clipPath>
                                    </defs>
                                </svg>