<svg viewBox="0 0 50 51" fill="none" xmlns="http://www.w3.org/2000/svg">
                                                            <g clip-path="url(#clip0_261_352)">
                                                                <path d="M20.1661 6.84137C20.6011 6.84339 21.0362 6.8454 21.4844 6.84748C21.4844 8.36213 21.4844 9.87677 21.4844 11.4373C21.0373 11.4776 20.5901 11.5179 20.1294 11.5594C17.3271 11.832 14.4963 12.4678 12.5794 14.721C10.7595 17.1414 10.7422 19.682 10.7422 22.6678C14.2872 22.6678 17.8321 22.6678 21.4844 22.6678C21.4844 29.7576 21.4844 36.8475 21.4844 44.1522C14.3946 44.1522 7.30473 44.1522 4.63016e-05 44.1522C-0.0117612 38.1819 -0.0117612 38.1819 -0.0142588 35.6732C-0.0148323 35.1001 -0.0154242 34.5269 -0.016047 33.9538C-0.0161242 33.882 -0.0162013 33.8102 -0.0162809 33.7362C-0.017551 32.5805 -0.0198589 31.4248 -0.0225573 30.2691C-0.0253083 29.0808 -0.0269271 27.8925 -0.0275194 26.7042C-0.0278834 26.0377 -0.0287489 25.3712 -0.0309287 24.7047C-0.0329334 24.076 -0.0335282 23.4472 -0.0330909 22.8185C-0.0331708 22.5891 -0.033744 22.3597 -0.0348775 22.1303C-0.0534631 18.1712 0.854383 14.7111 3.62553 11.7791C4.59285 10.8387 5.74356 10.108 6.93364 9.4842C7.09131 9.40054 7.09131 9.40054 7.25217 9.3152C11.1524 7.37177 15.8487 6.81265 20.1661 6.84137ZM18.6325 8.92792C18.552 8.93449 18.4715 8.94107 18.3886 8.94784C18.3019 8.95515 18.2153 8.96245 18.126 8.96997C18.0353 8.97757 17.9446 8.98517 17.8511 8.993C13.5439 9.35806 9.0417 9.81585 5.66411 12.8045C5.58329 12.8755 5.50247 12.9465 5.4192 13.0197C3.60562 14.7258 2.63342 17.1199 2.21562 19.5306C2.20004 19.6191 2.18447 19.7077 2.16842 19.7989C1.9153 21.4048 1.93874 23.052 1.94208 24.6735C1.94211 24.8652 1.9421 25.057 1.94204 25.2487C1.94201 25.7625 1.94258 26.2763 1.94327 26.79C1.94389 27.3295 1.94394 27.8689 1.94405 28.4084C1.94436 29.4269 1.94515 30.4453 1.94614 31.4638C1.94744 32.8423 1.94796 34.2207 1.94853 35.5991C1.94945 37.7665 1.95139 39.934 1.95317 42.1014C7.72173 42.1014 13.4903 42.1014 19.4336 42.1014C19.4336 36.3651 19.4336 30.6287 19.4336 24.7186C15.9532 24.7186 12.4727 24.7186 8.88676 24.7186C8.85454 24.2674 8.82231 23.8162 8.78911 23.3514C8.77098 23.158 8.75285 22.9647 8.73418 22.7654C8.47845 19.3832 8.93265 16.0388 11.0638 13.2977C13.0325 11.0225 15.8777 10.0442 18.768 9.63831C19.132 9.59401 19.132 9.59401 19.4336 9.4842C19.4336 9.29084 19.4336 9.09748 19.4336 8.89826C19.161 8.89826 18.9029 8.9057 18.6325 8.92792Z" fill="#FF6A00"/>
                                                                <path d="M50.0001 6.84753C50.0001 8.36218 50.0001 9.87682 50.0001 11.4374C49.3566 11.4978 49.3566 11.4978 48.7001 11.5594C45.8328 11.8491 43.1007 12.4944 41.1294 14.7756C39.3258 17.1229 39.3556 19.7707 39.3556 22.6678C42.8683 22.6678 46.381 22.6678 50.0001 22.6678C50.0001 29.7577 50.0001 36.8475 50.0001 44.1522C42.9103 44.1522 35.8204 44.1522 28.5157 44.1522C28.5079 38.5406 28.5079 38.5406 28.5062 36.1784C28.5058 35.6387 28.5054 35.0991 28.505 34.5594C28.505 34.4918 28.5049 34.4242 28.5048 34.3545C28.504 33.2679 28.5025 32.1813 28.5007 31.0947C28.4988 29.9766 28.4978 28.8585 28.4974 27.7404C28.4971 27.1136 28.4965 26.4868 28.4951 25.86C28.4937 25.2682 28.4934 24.6763 28.4936 24.0845C28.4936 23.8691 28.4932 23.6537 28.4924 23.4383C28.4779 19.0943 29.0602 15.0286 32.2023 11.8097C36.7354 7.36198 43.9851 6.78913 50.0001 6.84753ZM47.2458 8.92797C47.1653 8.93454 47.0849 8.94112 47.002 8.9479C46.9153 8.9552 46.8286 8.9625 46.7393 8.97003C46.6486 8.97762 46.5579 8.98522 46.4645 8.99305C41.7311 9.39424 36.6152 9.96017 33.3009 13.7811C31.7196 15.7759 30.8793 18.2209 30.6545 20.7391C30.6462 20.8323 30.6379 20.9254 30.6293 21.0214C30.5473 22.0101 30.5404 22.9947 30.5443 23.9862C30.5444 24.1856 30.5444 24.3851 30.5443 24.5846C30.5442 25.1185 30.5453 25.6525 30.5467 26.1864C30.5479 26.7472 30.548 27.308 30.5483 27.8688C30.5489 28.9275 30.5505 29.9861 30.5524 31.0447C30.5551 32.4775 30.5561 33.9104 30.5572 35.3433C30.5591 37.596 30.563 39.8487 30.5665 42.1014C36.3351 42.1014 42.1036 42.1014 48.047 42.1014C48.047 36.3651 48.047 30.6288 48.047 24.7186C44.5665 24.7186 41.086 24.7186 37.5001 24.7186C37.4518 24.1385 37.4518 24.1385 37.4025 23.5467C37.3848 23.3733 37.3672 23.1998 37.349 23.0211C37.0405 19.6281 37.4364 16.1473 39.5936 13.3966C41.6103 11.0704 44.4104 10.0415 47.3916 9.63493C47.747 9.59375 47.747 9.59375 48.047 9.48425C48.047 9.29089 48.047 9.09753 48.047 8.89831C47.7743 8.89831 47.5162 8.90575 47.2458 8.92797Z" fill="#FF6A00"/>
                                                            </g>
                                                            <defs>
                                                                <clipPath id="clip0_261_352">
                                                                    <rect width="50" height="50" fill="white" transform="translate(0 0.5)"/>
                                                                </clipPath>
                                                            </defs>
                                                        </svg>