<svg width="21" height="20" viewBox="0 0 21 20" fill="none" xmlns="http://www.w3.org/2000/svg">
                                    <g clip-path="url(#clip0_2001_150)">
                                        <path d="M15.8499 1.99197C15.9171 2.01191 15.9171 2.01191 15.9857 2.03225C16.5089 2.20395 17.1526 2.49243 17.513 2.92527C17.6338 3.07399 17.6338 3.07399 17.8072 3.13276C17.9035 3.11698 17.9912 3.09191 18.0837 3.0613C18.1177 3.05135 18.1517 3.04139 18.1867 3.03113C18.2938 2.99904 18.3999 2.96451 18.5061 2.92947C18.5393 2.91903 18.5724 2.9086 18.6066 2.89784C19.1015 2.74188 19.5661 2.5365 20.0295 2.30447C20.0595 2.28953 20.0894 2.2746 20.1203 2.25921C20.1942 2.22227 20.2681 2.18526 20.342 2.14822C20.2508 2.94843 19.5868 3.69414 18.9903 4.18511C18.9214 4.23717 18.8507 4.28686 18.7795 4.33572C19.0611 4.31597 19.3249 4.26681 19.5974 4.19412C19.636 4.18399 19.6746 4.17386 19.7143 4.16343C20.0414 4.07497 20.3568 3.96328 20.6724 3.84042C20.8108 3.78884 20.8108 3.78884 20.8889 3.78884C20.7301 4.25329 20.2866 4.65117 19.9514 4.99978C19.9311 5.02114 19.9108 5.04251 19.8899 5.06452C19.8278 5.12963 19.7652 5.19415 19.7024 5.25857C19.6817 5.28028 19.6611 5.302 19.6398 5.32437C19.5306 5.43535 19.4308 5.51948 19.2913 5.58968C19.1221 5.6799 18.9869 5.76277 18.8967 5.93728C18.8287 6.27814 18.8488 6.63225 18.8557 6.97819C18.9021 9.66669 17.5431 12.5659 15.7208 14.4965C15.6387 14.5844 15.5605 14.6731 15.4836 14.7654C15.1222 15.1811 14.6866 15.5288 14.2483 15.8592C14.2247 15.8772 14.2011 15.8952 14.1767 15.9138C12.1719 17.4417 9.72807 18.1332 7.22925 18.1345C7.18636 18.1346 7.14348 18.1346 7.09929 18.1346C6.47939 18.134 5.87505 18.1211 5.26392 18.0076C5.22605 18.0009 5.18818 17.9942 5.14917 17.9873C3.62542 17.7126 2.1954 17.1563 0.888916 16.3279C0.901807 16.3021 0.914697 16.2763 0.927979 16.2498C0.952753 16.2526 0.977527 16.2554 1.00305 16.2583C3.00184 16.4571 5.21166 15.9338 6.78735 14.6482C6.73675 14.6401 6.68614 14.632 6.634 14.6236C5.46469 14.4256 4.39779 13.9256 3.68965 12.9366C3.11548 12.0974 3.11548 12.0974 3.11548 11.7185C3.14715 11.7213 3.17882 11.7242 3.21146 11.7271C3.72742 11.7703 4.2053 11.7467 4.71704 11.6795C4.69655 11.6718 4.67605 11.6642 4.65494 11.6563C4.54464 11.6137 4.43552 11.5688 4.32642 11.5232C4.30213 11.5131 4.27784 11.5031 4.25281 11.4927C3.47451 11.1648 2.78458 10.6464 2.33423 9.92165C2.30855 9.88117 2.28287 9.84069 2.25641 9.79897C1.85024 9.12765 1.62918 8.36583 1.67017 7.5779C1.84455 7.63355 2.01173 7.69987 2.18042 7.77078C2.57198 7.93059 2.96654 8.019 3.38892 8.04665C3.32144 7.98473 3.25388 7.9229 3.18628 7.86111C3.12986 7.80944 3.12986 7.80944 3.0723 7.75674C2.96367 7.65742 2.96367 7.65742 2.85944 7.57989C2.74693 7.48554 2.65916 7.37942 2.57104 7.26296C2.55404 7.24061 2.53704 7.21826 2.51952 7.19523C2.37029 6.99505 2.24838 6.78679 2.13892 6.56228C2.12175 6.52829 2.10457 6.4943 2.08688 6.45928C1.62873 5.51115 1.56995 4.38941 1.89336 3.39019C1.98904 3.11784 2.10993 2.86553 2.2561 2.61697C2.40553 2.67609 2.47548 2.76294 2.57257 2.88888C2.7577 3.12111 2.95842 3.33091 3.16919 3.53982C3.20313 3.57406 3.23707 3.6083 3.27203 3.64358C3.50709 3.87794 3.75357 4.09093 4.01392 4.29666C4.03768 4.31571 4.06144 4.33477 4.08592 4.35441C4.75123 4.88599 5.47597 5.33715 6.24324 5.70556C6.31381 5.73965 6.3839 5.77473 6.45395 5.80987C7.78775 6.46252 9.22754 6.7359 10.6936 6.87478C10.6881 6.84229 10.6826 6.80979 10.6769 6.77631C10.6351 6.51897 10.6012 6.26893 10.6033 6.00808C10.6035 5.97684 10.6037 5.9456 10.6039 5.91342C10.6278 4.70898 11.1393 3.70502 11.9923 2.87103C13.0003 1.95452 14.5435 1.59975 15.8499 1.99197Z" fill="black"/>
                                    </g>
                                    <defs>
                                        <clipPath id="clip0_2001_150">
                                            <rect width="20" height="20" fill="white" transform="translate(0.888916)"/>
                                        </clipPath>
                                    </defs>
                                </svg>