<svg viewBox="0 0 46 30" fill="none" xmlns="http://www.w3.org/2000/svg">
                                    <path d="M28.9466 0.556521C29.1365 0.701023 29.3156 0.853054 29.4943 1.01121C29.6313 1.12747 29.7684 1.24369 29.9055 1.35987C30.0095 1.44942 30.0095 1.44942 30.1156 1.54078C30.4447 1.82207 30.7812 2.09398 31.1178 2.36619C31.1828 2.41904 31.2477 2.47189 31.3147 2.52634C31.7278 2.86202 32.1446 3.19242 32.5643 3.51975C33.1508 3.97712 33.7246 4.44879 34.2973 4.92316C34.7261 5.27751 35.1588 5.62562 35.5978 5.96726C36.1913 6.42931 36.7723 6.90562 37.352 7.38497C37.785 7.74303 38.2207 8.09725 38.6606 8.44682C39.0005 8.71875 39.3376 8.99419 39.6749 9.26927C40.1655 9.669 40.659 10.0643 41.1581 10.4533C41.7441 10.9103 42.3176 11.3814 42.8896 11.8557C43.3322 12.2218 43.7804 12.5793 44.2343 12.9314C45.7952 14.1473 45.7952 14.1473 45.9494 14.6098C45.9847 15.1571 45.9773 15.4194 45.6564 15.8794C45.1498 16.4095 44.5466 16.8473 43.9686 17.2964C43.4989 17.6622 43.0386 18.0385 42.5802 18.4184C42.0269 18.8768 41.4683 19.3264 40.9014 19.7677C40.4454 20.124 39.9985 20.4907 39.5529 20.8598C39.0534 21.2736 38.551 21.6822 38.0392 22.0805C37.388 22.5878 36.7516 23.1122 36.1154 23.6381C35.1829 24.4088 34.2438 25.1704 33.2899 25.9145C32.7509 26.3367 32.2234 26.7725 31.6956 27.2087C31.2588 27.5698 30.8214 27.9298 30.3758 28.2802C30.179 28.4372 29.9861 28.597 29.7937 28.7593C29.6736 28.8585 29.5534 28.9577 29.4332 29.0569C29.3783 29.1043 29.3234 29.1517 29.2668 29.2006C28.842 29.5468 28.5299 29.6324 27.9806 29.6489C27.635 29.5315 27.4503 29.417 27.2055 29.1484C27.0591 28.7525 27.0571 28.3882 27.1993 27.9887C27.5235 27.6248 27.8948 27.3131 28.2675 27C28.3495 26.9308 28.3495 26.9308 28.4332 26.8602C28.8903 26.4772 29.3572 26.1075 29.8275 25.7408C30.2598 25.4037 30.6856 25.0594 31.109 24.7112C31.9456 24.0234 32.7845 23.3386 33.6386 22.6726C34.2339 22.2082 34.817 21.7299 35.3988 21.2488C35.8319 20.8907 36.2675 20.5365 36.7075 20.1869C37.0474 19.915 37.3844 19.6396 37.7218 19.3645C38.266 18.921 38.8148 18.4843 39.3686 18.0529C39.9269 17.616 40.4724 17.1639 41.0169 16.71C41.0842 16.6542 41.1514 16.5984 41.2207 16.5408C41.2805 16.4909 41.3403 16.441 41.402 16.3895C41.5548 16.27 41.5548 16.27 41.7501 16.1723C41.6203 16.1723 41.6203 16.1723 41.4878 16.1723C36.3601 16.171 31.2323 16.1671 26.1046 16.16C25.4893 16.1591 24.8739 16.1583 24.2585 16.1574C24.136 16.1573 24.0135 16.1571 23.8873 16.1569C21.9023 16.1543 19.9173 16.1535 17.9322 16.1532C15.8962 16.1529 13.8602 16.1508 11.8242 16.1469C10.5673 16.1446 9.31045 16.1437 8.05358 16.1447C7.19232 16.1452 6.33107 16.1439 5.46982 16.1412C4.97251 16.1397 4.47524 16.139 3.97794 16.1404C3.52287 16.1417 3.06786 16.1408 2.6128 16.138C2.44797 16.1374 2.28314 16.1377 2.11831 16.1388C1.89451 16.1402 1.67093 16.1386 1.44715 16.1363C1.26059 16.1361 1.26058 16.1361 1.07026 16.136C0.626182 16.0549 0.466483 15.9018 0.148553 15.5864C-0.00909334 15.2711 -0.00727764 14.9507 0.0508969 14.6098C0.22043 14.3144 0.425487 14.0807 0.734491 13.9262C0.955849 13.9164 1.1775 13.9132 1.39908 13.9127C1.46856 13.9124 1.53803 13.9122 1.60961 13.9119C1.84477 13.911 2.07993 13.9109 2.31509 13.9108C2.48444 13.9104 2.65379 13.9099 2.82314 13.9093C3.29034 13.908 3.75754 13.9073 4.22475 13.9067C4.72787 13.9059 5.231 13.9045 5.73413 13.9033C6.60644 13.9011 7.47876 13.8994 8.35107 13.8978C9.61231 13.8956 10.8735 13.8929 12.1348 13.89C14.1808 13.8853 16.2269 13.8811 18.273 13.8772C20.261 13.8733 22.2491 13.8693 24.2371 13.865C24.3596 13.8647 24.482 13.8644 24.6082 13.8641C25.2225 13.8628 25.8369 13.8615 26.4512 13.8601C31.5508 13.849 36.6505 13.8386 41.7501 13.8286C41.6567 13.7553 41.5632 13.682 41.4668 13.6065C41.3428 13.5091 41.2187 13.4117 41.0946 13.3144C41.0331 13.2662 40.9717 13.218 40.9084 13.1684C40.4508 12.8092 39.9997 12.4433 39.5529 12.0708C39.0535 11.6569 38.551 11.2484 38.0392 10.8501C37.4545 10.395 36.8829 9.92534 36.3123 9.45275C35.8835 9.09842 35.4508 8.75031 35.0119 8.40867C34.4183 7.94663 33.8373 7.47031 33.2577 6.99096C32.8246 6.6329 32.389 6.27869 31.949 5.92912C31.6771 5.71154 31.407 5.49173 31.137 5.27163C30.5725 4.81141 30.0063 4.35382 29.4332 3.90428C29.351 3.83951 29.351 3.83951 29.2671 3.77343C28.9748 3.54383 28.6804 3.31753 28.3831 3.09442C28.3208 3.0471 28.2586 2.99978 28.1945 2.95103C28.076 2.86104 27.9569 2.77193 27.8369 2.68391C27.3834 2.33731 27.1418 1.99402 27.059 1.42625C27.1147 1.04375 27.2446 0.841972 27.4923 0.547342C27.9381 0.262551 28.494 0.294756 28.9466 0.556521Z" fill="#2C2B28"/>
                                </svg>