<svg xmlns="http://www.w3.org/2000/svg" width="492" height="328" fill="none"><mask id="b" fill="#fff"><path d="M391.022 0c15.601 0 25.195 17.068 17.085 30.396l-58.856 96.727c-6.753 12.735-20.567 23.149-30.731 23.189H-71.965c-15.601 0-25.195-17.068-17.085-30.396l58.856-96.726C-23.441 10.453-9.627.04.537 0z"/></mask><path fill="url(#a)" d="m349.251 127.123-.854-.52-.016.025-.013.027zm-30.731 23.189v1.001l.004-.001zM-30.194 23.189l.854.52.015-.025.014-.026zM.537 0v-1H.533zM-89.05 119.916l-.855-.52zm497.157-89.52.854.52zm0 0-.854-.52-58.856 96.727.854.52.854.52 58.856-96.727zm-58.856 96.727-.883-.468c-3.303 6.227-8.344 11.905-13.806 16.025-5.483 4.136-11.269 6.613-16.046 6.633l.004.999.004 1c5.386-.021 11.589-2.771 17.243-7.035 5.675-4.281 10.917-10.178 14.367-16.685zm-30.731 23.189v-1H-71.965v2H318.52zm-407.57-30.396.854.52 58.856-96.727-.854-.52-.855-.52-58.856 96.727zm58.856-96.726.883.468c3.302-6.228 8.344-11.906 13.806-16.025C-10.023 3.497-4.237 1.019.54 1L.537 0 .533-1c-5.386.022-11.59 2.771-17.243 7.036-5.675 4.28-10.917 10.178-14.368 16.685zM.537 0v1h390.485v-2H.537zm-72.502 150.312v-1c-14.821 0-23.935-16.214-16.231-28.876l-.854-.52-.855-.52c-8.515 13.995 1.559 31.916 17.94 31.916zM408.107 30.396l.854.52C417.477 16.922 407.403-1 391.022-1v2c14.821 0 23.935 16.215 16.231 28.876z" mask="url(#b)"/><mask id="d" fill="#fff"><path d="M471.022 177c15.601 0 25.195 17.068 17.085 30.396l-58.856 96.727c-6.753 12.735-20.567 23.149-30.731 23.189H8.035c-15.601 0-25.195-17.068-17.085-30.396l58.856-96.727c6.753-12.735 20.567-23.148 30.731-23.189z"/></mask><path fill="url(#c)" d="m429.251 304.123-.854-.52-.016.025-.013.027zm-30.731 23.189v1.001l.004-.001zM49.806 200.189l.854.52.015-.025.014-.026zM80.537 177v-1h-.004zM-9.05 296.916l-.855-.52zm497.157-89.52.854.52zm0 0-.854-.52-58.856 96.727.854.52.854.52 58.856-96.727zm-58.856 96.727-.883-.468c-3.303 6.227-8.344 11.905-13.806 16.025-5.483 4.136-11.269 6.613-16.046 6.633l.004.999.004 1c5.386-.021 11.589-2.771 17.243-7.035 5.675-4.281 10.917-10.178 14.367-16.685zm-30.731 23.189v-1H8.035v2H398.52zM-9.05 296.916l.854.52 58.856-96.727-.854-.52-.855-.519-58.856 96.726zm58.856-96.727.883.469c3.303-6.228 8.344-11.905 13.806-16.025 5.482-4.136 11.268-6.614 16.046-6.633l-.004-1-.004-1c-5.386.022-11.59 2.771-17.243 7.036-5.675 4.281-10.917 10.178-14.368 16.685zM80.537 177v1h390.485v-2H80.537zM8.035 327.312v-1c-14.821 0-23.935-16.214-16.231-28.876l-.854-.52-.855-.52c-8.515 13.995 1.559 31.916 17.94 31.916zm480.072-119.916.854.52c8.516-13.994-1.558-31.916-17.939-31.916v2c14.821 0 23.935 16.215 16.231 28.876z" mask="url(#d)"/><defs><linearGradient id="a" x1="-140.248" x2="-4.589" y1="162.946" y2="-124.147" gradientUnits="userSpaceOnUse"><stop offset=".095" stop-color="#fff" stop-opacity="0"/><stop offset=".899" stop-color="#9CC2FF"/></linearGradient><linearGradient id="c" x1="-60.248" x2="75.411" y1="339.946" y2="52.853" gradientUnits="userSpaceOnUse"><stop offset=".095" stop-color="#fff" stop-opacity="0"/><stop offset=".899" stop-color="#9CC2FF"/></linearGradient></defs></svg>