<svg xmlns="http://www.w3.org/2000/svg" width="572" height="328" fill="none"><mask id="b" fill="#fff"><path d="M483.022 0c15.601 0 25.195 17.068 17.085 30.396l-58.856 96.727c-6.753 12.735-20.567 23.149-30.731 23.189H20.035c-15.601 0-25.195-17.068-17.085-30.396L61.806 23.19C68.559 10.453 82.373.04 92.537 0z"/></mask><path fill="url(#a)" d="m441.251 127.123-.854-.52-.016.025-.013.027zm-30.731 23.189v1.001l.004-.001zM61.806 23.189l.854.52.015-.025.014-.026zM92.537 0v-1h-.004zM2.95 119.916l-.855-.52zm497.157-89.52.854.52zm0 0-.854-.52-58.856 96.727.854.52.854.52 58.856-96.727zm-58.856 96.727-.883-.468c-3.303 6.227-8.344 11.905-13.806 16.025-5.483 4.136-11.269 6.613-16.046 6.633l.004.999.004 1c5.386-.021 11.589-2.771 17.243-7.035 5.675-4.281 10.917-10.178 14.367-16.685zm-30.731 23.189v-1H20.035v2H410.52zM2.95 119.916l.854.52L62.66 23.709l-.854-.52-.855-.52-58.856 96.727zM61.806 23.19l.883.468c3.303-6.228 8.344-11.906 13.806-16.025C81.977 3.497 87.763 1.019 92.54 1l-.004-1-.004-1c-5.386.022-11.59 2.771-17.243 7.036-5.675 4.28-10.917 10.178-14.368 16.685zM92.537 0v1h390.485v-2H92.537zM20.035 150.312v-1c-14.821 0-23.935-16.214-16.231-28.876l-.854-.52-.855-.52c-8.515 13.995 1.559 31.916 17.94 31.916zM500.107 30.396l.854.52C509.477 16.922 499.403-1 483.022-1v2c14.821 0 23.935 16.215 16.231 28.876z" mask="url(#b)"/><mask id="d" fill="#fff"><path d="M563.022 177c15.601 0 25.195 17.068 17.085 30.396l-58.856 96.727c-6.753 12.735-20.567 23.149-30.731 23.189H100.035c-15.601 0-25.195-17.068-17.085-30.396l58.856-96.727c6.753-12.735 20.567-23.148 30.731-23.189z"/></mask><path fill="url(#c)" d="m521.251 304.123-.854-.52-.016.025-.013.027zm-30.731 23.189v1.001l.004-.001zM141.806 200.189l.854.52.015-.025.014-.026zM172.537 177v-1h-.004zM82.95 296.916l-.855-.52zm497.157-89.52.854.52zm0 0-.854-.52-58.856 96.727.854.52.854.52 58.856-96.727zm-58.856 96.727-.883-.468c-3.303 6.227-8.344 11.905-13.806 16.025-5.483 4.136-11.269 6.613-16.046 6.633l.004.999.004 1c5.386-.021 11.589-2.771 17.243-7.035 5.675-4.281 10.917-10.178 14.367-16.685zm-30.731 23.189v-1H100.035v2H490.52zM82.95 296.916l.854.52 58.856-96.727-.854-.52-.855-.519-58.856 96.726zm58.856-96.727.883.469c3.303-6.228 8.344-11.905 13.805-16.025 5.483-4.136 11.269-6.614 16.047-6.633l-.004-1-.004-1c-5.386.022-11.589 2.771-17.243 7.036-5.675 4.281-10.917 10.178-14.368 16.685zM172.537 177v1h390.485v-2H172.537zm-72.502 150.312v-1c-14.821 0-23.935-16.214-16.231-28.876l-.854-.52-.855-.52c-8.515 13.995 1.559 31.916 17.94 31.916zm480.072-119.916.854.52c8.516-13.994-1.558-31.916-17.939-31.916v2c14.821 0 23.935 16.215 16.231 28.876z" mask="url(#d)"/><defs><linearGradient id="a" x1="-48.248" x2="87.411" y1="162.946" y2="-124.147" gradientUnits="userSpaceOnUse"><stop offset=".095" stop-color="#fff" stop-opacity="0"/><stop offset=".899" stop-color="#9CC2FF"/></linearGradient><linearGradient id="c" x1="31.752" x2="167.411" y1="339.946" y2="52.853" gradientUnits="userSpaceOnUse"><stop offset=".095" stop-color="#fff" stop-opacity="0"/><stop offset=".899" stop-color="#9CC2FF"/></linearGradient></defs></svg>